<?xml version="1.0" encoding="UTF-8" standalone="no"?>
<!-- Created with Inkscape (http://www.inkscape.org/) -->

<svg
   xmlns:dc="http://purl.org/dc/elements/1.1/"
   xmlns:cc="http://creativecommons.org/ns#"
   xmlns:rdf="http://www.w3.org/1999/02/22-rdf-syntax-ns#"
   xmlns:svg="http://www.w3.org/2000/svg"
   xmlns="http://www.w3.org/2000/svg"
   xmlns:sodipodi="http://sodipodi.sourceforge.net/DTD/sodipodi-0.dtd"
   xmlns:inkscape="http://www.inkscape.org/namespaces/inkscape"
   version="1.1"
   id="svg815"
   xml:space="preserve"
   width="22mm"
   height="22mm"
   viewBox="0 0 83.149608 83.149608"
   sodipodi:docname="ciezarowka_Accepted.svg"
   inkscape:version="0.92.2 (5c3e80d, 2017-08-06)"><metadata
     id="metadata821"><rdf:RDF><cc:Work
         rdf:about=""><dc:format>image/svg+xml</dc:format><dc:type
           rdf:resource="http://purl.org/dc/dcmitype/StillImage" /><dc:title></dc:title></cc:Work></rdf:RDF></metadata><defs
     id="defs819"><clipPath
       clipPathUnits="userSpaceOnUse"
       id="clipPath831"><path
         d="M 0,451.998 H 452.563 V 0 H 0 Z"
         id="path829"
         inkscape:connector-curvature="0" /></clipPath></defs><sodipodi:namedview
     pagecolor="#ffffff"
     bordercolor="#666666"
     borderopacity="1"
     objecttolerance="10"
     gridtolerance="10"
     guidetolerance="10"
     inkscape:pageopacity="0"
     inkscape:pageshadow="2"
     inkscape:window-width="1440"
     inkscape:window-height="878"
     id="namedview817"
     showgrid="false"
     inkscape:zoom="2.5202523"
     inkscape:cx="31.023532"
     inkscape:cy="68.967383"
     inkscape:window-x="1358"
     inkscape:window-y="-8"
     inkscape:window-maximized="1"
     inkscape:current-layer="g823"
     units="mm" /><g
     id="g823"
     inkscape:groupmode="layer"
     inkscape:label="ikony"
     transform="matrix(1.3333333,0,0,-1.3333333,0,83.149607)"><path
       style="fill:#000000;stroke-width:2.17164397"
       d=""
       id="path4899"
       inkscape:connector-curvature="0" /><g
       id="g6183"
       transform="matrix(1.2876275,0,0,1.2876275,61.009005,31.197594)"><path
         d="m 0,0 c 0,12.788 -10.367,23.155 -23.154,23.155 -12.789,0 -23.157,-10.367 -23.157,-23.155 0,-12.788 10.368,-23.155 23.157,-23.155 C -10.367,-23.155 0,-12.788 0,0 Z"
         style="fill:none;stroke:#da1f27;stroke-width:2;stroke-linecap:butt;stroke-linejoin:miter;stroke-miterlimit:10;stroke-dasharray:none;stroke-opacity:1"
         id="path6185"
         inkscape:connector-curvature="0" /></g><g
       id="g6187"
       transform="matrix(1.2876275,0,0,1.2876275,62.334351,8.7332186)"><path
         d="m 0,0 c 0,-3.728 -3.022,-6.75 -6.75,-6.75 -3.728,0 -6.75,3.022 -6.75,6.75 0,3.728 3.022,6.75 6.75,6.75 C -3.022,6.75 0,3.728 0,0"
         style="fill:#da1f27;fill-opacity:1;fill-rule:nonzero;stroke:none"
         id="path6189"
         inkscape:connector-curvature="0" /></g><g
       id="g6191"
       transform="matrix(1.2876275,0,0,1.2876275,50.764505,8.3296761)"><path
         d="M 0,0 1.743,-1.743 5.359,1.874"
         style="fill:none;stroke:#ffffff;stroke-width:1;stroke-linecap:round;stroke-linejoin:miter;stroke-miterlimit:10;stroke-dasharray:none;stroke-opacity:1"
         id="path6193"
         inkscape:connector-curvature="0" /></g><g
       id="g6243"
       transform="matrix(1.2876275,0,0,1.2876275,48.166726,32.541748)"><path
         d="m 0,0 -2.02,4.403 c -0.114,0.25 -0.364,0.409 -0.638,0.409 h -5.766 v -5.131 -6.165 h 2.031 c 0,1.339 1.086,2.426 2.426,2.426 1.338,0 2.425,-1.087 2.425,-2.426 h 1.688 v 5.812 C 0.146,-0.44 0.096,-0.211 0,0 Z"
         style="fill:none;stroke:#da1f27;stroke-width:0.69999999;stroke-linecap:butt;stroke-linejoin:miter;stroke-miterlimit:10;stroke-dasharray:none;stroke-opacity:1"
         id="path6245"
         inkscape:connector-curvature="0" /></g><g
       id="g6247"
       transform="matrix(1.2876275,0,0,1.2876275,43.058972,27.317069)"><path
         d="m 0,0 c -1.34,0 -2.426,-1.087 -2.426,-2.427 0,-1.339 1.086,-2.425 2.426,-2.425 1.338,0 2.425,1.086 2.425,2.425 C 2.425,-1.087 1.338,0 0,0 Z"
         style="fill:none;stroke:#da1f27;stroke-width:0.69999999;stroke-linecap:butt;stroke-linejoin:miter;stroke-miterlimit:10;stroke-dasharray:none;stroke-opacity:1"
         id="path6249"
         inkscape:connector-curvature="0" /></g><g
       id="g6251"
       transform="matrix(1.2876275,0,0,1.2876275,25.201889,41.323883)"><path
         d="M 0,0 H 9.411 V -13.305 H 2.948 c 0,1.34 -1.086,2.427 -2.425,2.427 -1.339,0 -2.425,-1.087 -2.425,-2.427 H -5.415 V -6.348 0 Z"
         style="fill:none;stroke:#da1f27;stroke-width:0.69999999;stroke-linecap:butt;stroke-linejoin:miter;stroke-miterlimit:10;stroke-dasharray:none;stroke-opacity:1"
         id="path6253"
         inkscape:connector-curvature="0" /></g><g
       id="g6255"
       transform="matrix(1.2876275,0,0,1.2876275,25.875837,27.317069)"><path
         d="m 0,0 c -1.341,0 -2.426,-1.087 -2.426,-2.427 0,-1.339 1.085,-2.425 2.426,-2.425 1.339,0 2.425,1.086 2.425,2.425 C 2.425,-1.087 1.339,0 0,0 Z"
         style="fill:none;stroke:#da1f27;stroke-width:0.69999999;stroke-linecap:butt;stroke-linejoin:miter;stroke-miterlimit:10;stroke-dasharray:none;stroke-opacity:1"
         id="path6257"
         inkscape:connector-curvature="0" /></g></g></svg>