<?xml version="1.0" encoding="UTF-8" standalone="no"?>
<!-- Created with Inkscape (http://www.inkscape.org/) -->

<svg
   xmlns:dc="http://purl.org/dc/elements/1.1/"
   xmlns:cc="http://creativecommons.org/ns#"
   xmlns:rdf="http://www.w3.org/1999/02/22-rdf-syntax-ns#"
   xmlns:svg="http://www.w3.org/2000/svg"
   xmlns="http://www.w3.org/2000/svg"
   xmlns:sodipodi="http://sodipodi.sourceforge.net/DTD/sodipodi-0.dtd"
   xmlns:inkscape="http://www.inkscape.org/namespaces/inkscape"
   version="1.1"
   id="svg815"
   xml:space="preserve"
   width="22mm"
   height="22mm"
   viewBox="0 0 83.149608 83.149608"
   sodipodi:docname="kurier_z_paczka_Accepted.svg"
   inkscape:version="0.92.2 (5c3e80d, 2017-08-06)"><metadata
     id="metadata821"><rdf:RDF><cc:Work
         rdf:about=""><dc:format>image/svg+xml</dc:format><dc:type
           rdf:resource="http://purl.org/dc/dcmitype/StillImage" /><dc:title></dc:title></cc:Work></rdf:RDF></metadata><defs
     id="defs819"><clipPath
       clipPathUnits="userSpaceOnUse"
       id="clipPath831"><path
         d="M 0,451.998 H 452.563 V 0 H 0 Z"
         id="path829"
         inkscape:connector-curvature="0" /></clipPath></defs><sodipodi:namedview
     pagecolor="#ffffff"
     bordercolor="#666666"
     borderopacity="1"
     objecttolerance="10"
     gridtolerance="10"
     guidetolerance="10"
     inkscape:pageopacity="0"
     inkscape:pageshadow="2"
     inkscape:window-width="1440"
     inkscape:window-height="878"
     id="namedview817"
     showgrid="false"
     inkscape:zoom="5.0405047"
     inkscape:cx="94.659642"
     inkscape:cy="53.619201"
     inkscape:window-x="1358"
     inkscape:window-y="-8"
     inkscape:window-maximized="1"
     inkscape:current-layer="g823"
     units="mm" /><g
     id="g823"
     inkscape:groupmode="layer"
     inkscape:label="ikony"
     transform="matrix(1.3333333,0,0,-1.3333333,0,83.149607)"><path
       style="fill:#000000;stroke-width:2.17164397"
       d=""
       id="path4899"
       inkscape:connector-curvature="0" /><g
       id="g6159"
       transform="matrix(1.2872983,0,0,1.2872983,60.937904,31.160988)"><path
         d="m 0,0 c 0,12.788 -10.367,23.155 -23.154,23.155 -12.789,0 -23.157,-10.367 -23.157,-23.155 0,-12.788 10.368,-23.155 23.157,-23.155 C -10.367,-23.155 0,-12.788 0,0 Z"
         style="fill:none;stroke:#da1f27;stroke-width:2;stroke-linecap:butt;stroke-linejoin:miter;stroke-miterlimit:10;stroke-dasharray:none;stroke-opacity:1"
         id="path6161"
         inkscape:connector-curvature="0" /></g><g
       id="g6163"
       transform="matrix(1.2872983,0,0,1.2872983,62.253227,8.6570943)"><path
         d="m 0,0 c 0,-3.728 -3.022,-6.75 -6.75,-6.75 -3.728,0 -6.75,3.022 -6.75,6.75 0,3.728 3.022,6.75 6.75,6.75 C -3.022,6.75 0,3.728 0,0"
         style="fill:#da1f27;fill-opacity:1;fill-rule:nonzero;stroke:none"
         id="path6165"
         inkscape:connector-curvature="0" /></g><g
       id="g6167"
       transform="matrix(1.2872983,0,0,1.2872983,50.68633,8.2536549)"><path
         d="M 0,0 1.743,-1.743 5.359,1.874"
         style="fill:none;stroke:#ffffff;stroke-width:1;stroke-linecap:round;stroke-linejoin:miter;stroke-miterlimit:10;stroke-dasharray:none;stroke-opacity:1"
         id="path6169"
         inkscape:connector-curvature="0" /></g><g
       id="g6195"
       transform="matrix(1.2872983,0,0,1.2872983,34.333309,34.157947)"><path
         d="m 0,0 v 5.539 c 0,0.087 0.07,0.156 0.156,0.156 h 6.703 c 0.086,0 0.157,-0.069 0.157,-0.156 v -6.702 c 0,-0.086 -0.071,-0.156 -0.157,-0.156 H 2.156"
         style="fill:none;stroke:#da1f27;stroke-width:0.69999999;stroke-linecap:butt;stroke-linejoin:miter;stroke-miterlimit:10;stroke-dasharray:none;stroke-opacity:1"
         id="path6197"
         inkscape:connector-curvature="0" /></g><g
       id="g6199"
       transform="matrix(1.2872983,0,0,1.2872983,24.510057,37.616274)"><path
         d="m 0,0 c 0,0 0.258,1.152 1.15,1.152 h 1.291 c 0.413,0 1.014,-0.051 1.479,-0.773 0.463,-0.723 1.787,-2.321 1.787,-2.321 l 3.559,-1.375 c 0,0 0.773,-0.31 0.447,-1.204 C 9.387,-5.329 8.682,-5.055 8.492,-4.969 8.303,-4.883 4.453,-3.438 4.453,-3.438 L 3.369,-15.714 c 0,0 -0.189,-1.1 -0.912,-1.1 H 1.752 c 0,0 -0.703,-0.086 -0.842,1.118 C 0.773,-14.493 0,-6.671 0,-6.671 Z"
         style="fill:none;stroke:#da1f27;stroke-width:0.69999999;stroke-linecap:butt;stroke-linejoin:miter;stroke-miterlimit:10;stroke-dasharray:none;stroke-opacity:1"
         id="path6201"
         inkscape:connector-curvature="0" /></g><g
       id="g6203"
       transform="matrix(1.2872983,0,0,1.2872983,30.152035,43.724762)"><path
         d="m 0,0 c 0,1.311 -1.062,2.373 -2.371,2.373 -1.311,0 -2.373,-1.062 -2.373,-2.373 0,-1.31 1.062,-2.372 2.373,-2.372 C -1.062,-2.372 0,-1.31 0,0 Z"
         style="fill:none;stroke:#da1f27;stroke-width:0.69999999;stroke-linecap:butt;stroke-linejoin:miter;stroke-miterlimit:10;stroke-dasharray:none;stroke-opacity:1"
         id="path6205"
         inkscape:connector-curvature="0" /></g><g
       id="g6207"
       transform="matrix(1.2872983,0,0,1.2872983,29.629135,45.434423)"><path
         d="M 0,0 H 2.4"
         style="fill:none;stroke:#da1f27;stroke-width:0.69999999;stroke-linecap:butt;stroke-linejoin:miter;stroke-miterlimit:10;stroke-dasharray:none;stroke-opacity:1"
         id="path6209"
         inkscape:connector-curvature="0" /></g><g
       id="g6211"
       transform="matrix(1.2872983,0,0,1.2872983,40.040669,41.489497)"><path
         d="m 0,0 v -3.025 l -0.986,1.048"
         style="fill:none;stroke:#da1f27;stroke-width:0.69999999;stroke-linecap:butt;stroke-linejoin:miter;stroke-miterlimit:10;stroke-dasharray:none;stroke-opacity:1"
         id="path6213"
         inkscape:connector-curvature="0" /></g><g
       id="g6215"
       transform="matrix(1.2872983,0,0,1.2872983,37.65956,41.489497)"><path
         d="m 0,0 v -3.025 l 0.986,1.048"
         style="fill:none;stroke:#da1f27;stroke-width:0.69999999;stroke-linecap:butt;stroke-linejoin:miter;stroke-miterlimit:10;stroke-dasharray:none;stroke-opacity:1"
         id="path6217"
         inkscape:connector-curvature="0" /></g></g></svg>