<?xml version="1.0" encoding="UTF-8" standalone="no"?>
<!-- Created with Inkscape (http://www.inkscape.org/) -->

<svg
   xmlns:dc="http://purl.org/dc/elements/1.1/"
   xmlns:cc="http://creativecommons.org/ns#"
   xmlns:rdf="http://www.w3.org/1999/02/22-rdf-syntax-ns#"
   xmlns:svg="http://www.w3.org/2000/svg"
   xmlns="http://www.w3.org/2000/svg"
   xmlns:sodipodi="http://sodipodi.sourceforge.net/DTD/sodipodi-0.dtd"
   xmlns:inkscape="http://www.inkscape.org/namespaces/inkscape"
   version="1.1"
   id="svg815"
   xml:space="preserve"
   width="22mm"
   height="22mm"
   viewBox="0 0 83.149608 83.149608"
   sodipodi:docname="paczka_na_dloni_Accepted.svg"
   inkscape:version="0.92.2 (5c3e80d, 2017-08-06)"><metadata
     id="metadata821"><rdf:RDF><cc:Work
         rdf:about=""><dc:format>image/svg+xml</dc:format><dc:type
           rdf:resource="http://purl.org/dc/dcmitype/StillImage" /><dc:title></dc:title></cc:Work></rdf:RDF></metadata><defs
     id="defs819"><clipPath
       clipPathUnits="userSpaceOnUse"
       id="clipPath831"><path
         d="M 0,451.998 H 452.563 V 0 H 0 Z"
         id="path829"
         inkscape:connector-curvature="0" /></clipPath></defs><sodipodi:namedview
     pagecolor="#ffffff"
     bordercolor="#666666"
     borderopacity="1"
     objecttolerance="10"
     gridtolerance="10"
     guidetolerance="10"
     inkscape:pageopacity="0"
     inkscape:pageshadow="2"
     inkscape:window-width="1440"
     inkscape:window-height="878"
     id="namedview817"
     showgrid="false"
     inkscape:zoom="3.5641751"
     inkscape:cx="34.946787"
     inkscape:cy="22.669307"
     inkscape:window-x="1358"
     inkscape:window-y="-8"
     inkscape:window-maximized="1"
     inkscape:current-layer="g823"
     units="mm" /><g
     id="g823"
     inkscape:groupmode="layer"
     inkscape:label="ikony"
     transform="matrix(1.3333333,0,0,-1.3333333,0,83.149607)"><path
       style="fill:#000000;stroke-width:2.17164397"
       d=""
       id="path4899"
       inkscape:connector-curvature="0" /><g
       id="g6135"
       transform="matrix(1.2884827,0,0,1.2884827,27.854083,22.584932)"><path
         d="m 0,0 3.479,-0.298 c 0,0 0.803,-0.029 0.982,0.298 C 4.64,0.327 4.759,0.684 3.985,1.011 3.213,1.338 1.041,2.379 1.041,2.379 c 0,0 -2.766,1.309 -5.205,0 -2.26,-0.982 -5.323,-2.231 -5.323,-2.231 l 2.051,-4.044 3.688,1.952 4.67,-1.566 c 0,0 2.082,-1.041 4.372,0.179 2.29,1.22 8.119,4.49 8.119,4.49 0,0 -0.922,1.368 -2.706,0.654 C 8.922,1.1 5.829,-0.238 5.829,-0.238"
         style="fill:none;stroke:#da1f27;stroke-width:0.69999999;stroke-linecap:butt;stroke-linejoin:miter;stroke-miterlimit:10;stroke-dasharray:none;stroke-opacity:1"
         id="path6137"
         inkscape:connector-curvature="0" /></g><path
       d="M 42.147867,29.251154 H 22.909532 V 43.32525 h 19.238335 z"
       style="fill:none;stroke:#da1f27;stroke-width:0.9019379;stroke-linecap:butt;stroke-linejoin:miter;stroke-miterlimit:10;stroke-dasharray:none;stroke-opacity:1"
       id="path6139"
       inkscape:connector-curvature="0" /><g
       id="g6141"
       transform="matrix(1.2884827,0,0,1.2884827,22.910299,32.212087)"><path
         d="M 0,0 H 14.931"
         style="fill:none;stroke:#da1f27;stroke-width:0.69999999;stroke-linecap:butt;stroke-linejoin:miter;stroke-miterlimit:10;stroke-dasharray:none;stroke-opacity:1"
         id="path6143"
         inkscape:connector-curvature="0" /></g><path
       d="M 28.48995,38.708618 H 25.1618 v 2.254843 h 3.32815 z"
       style="fill:none;stroke:#da1f27;stroke-width:0.9019379;stroke-linecap:butt;stroke-linejoin:miter;stroke-miterlimit:10;stroke-dasharray:none;stroke-opacity:1"
       id="path6145"
       inkscape:connector-curvature="0" /><g
       id="g6147"
       transform="matrix(1.2884827,0,0,1.2884827,61.03883,31.207973)"><path
         d="m 0,0 c 0,12.788 -10.367,23.155 -23.154,23.155 -12.789,0 -23.157,-10.367 -23.157,-23.155 0,-12.788 10.368,-23.155 23.157,-23.155 C -10.367,-23.155 0,-12.788 0,0 Z"
         style="fill:none;stroke:#da1f27;stroke-width:2;stroke-linecap:butt;stroke-linejoin:miter;stroke-miterlimit:10;stroke-dasharray:none;stroke-opacity:1"
         id="path6149"
         inkscape:connector-curvature="0" /></g><g
       id="g6151"
       transform="matrix(1.2884827,0,0,1.2884827,62.311355,8.7437795)"><path
         d="m 0,0 c 0,-3.728 -3.022,-6.75 -6.75,-6.75 -3.728,0 -6.75,3.022 -6.75,6.75 0,3.728 3.022,6.75 6.75,6.75 C -3.022,6.75 0,3.728 0,0"
         style="fill:#da1f27;fill-opacity:1;fill-rule:nonzero;stroke:none"
         id="path6153"
         inkscape:connector-curvature="0" /></g><g
       id="g6155"
       transform="matrix(1.2884827,0,0,1.2884827,50.733825,8.339969)"><path
         d="M 0,0 1.743,-1.743 5.359,1.874"
         style="fill:none;stroke:#ffffff;stroke-width:1;stroke-linecap:round;stroke-linejoin:miter;stroke-miterlimit:10;stroke-dasharray:none;stroke-opacity:1"
         id="path6157"
         inkscape:connector-curvature="0" /></g></g></svg>