<?xml version="1.0" encoding="UTF-8" standalone="no"?>
<!-- Created with Inkscape (http://www.inkscape.org/) -->

<svg
   xmlns:dc="http://purl.org/dc/elements/1.1/"
   xmlns:cc="http://creativecommons.org/ns#"
   xmlns:rdf="http://www.w3.org/1999/02/22-rdf-syntax-ns#"
   xmlns:svg="http://www.w3.org/2000/svg"
   xmlns="http://www.w3.org/2000/svg"
   xmlns:sodipodi="http://sodipodi.sourceforge.net/DTD/sodipodi-0.dtd"
   xmlns:inkscape="http://www.inkscape.org/namespaces/inkscape"
   version="1.1"
   id="svg815"
   xml:space="preserve"
   width="22mm"
   height="22mm"
   viewBox="0 0 83.149608 83.149608"
   sodipodi:docname="paczka_ze_strzalka_w_prawo_Accepted.svg"
   inkscape:version="0.92.2 (5c3e80d, 2017-08-06)"><metadata
     id="metadata821"><rdf:RDF><cc:Work
         rdf:about=""><dc:format>image/svg+xml</dc:format><dc:type
           rdf:resource="http://purl.org/dc/dcmitype/StillImage" /><dc:title></dc:title></cc:Work></rdf:RDF></metadata><defs
     id="defs819"><clipPath
       clipPathUnits="userSpaceOnUse"
       id="clipPath831"><path
         d="M 0,451.998 H 452.563 V 0 H 0 Z"
         id="path829"
         inkscape:connector-curvature="0" /></clipPath></defs><sodipodi:namedview
     pagecolor="#ffffff"
     bordercolor="#666666"
     borderopacity="1"
     objecttolerance="10"
     gridtolerance="10"
     guidetolerance="10"
     inkscape:pageopacity="0"
     inkscape:pageshadow="2"
     inkscape:window-width="1440"
     inkscape:window-height="878"
     id="namedview817"
     showgrid="false"
     inkscape:zoom="5.0405047"
     inkscape:cx="32.223374"
     inkscape:cy="54.496085"
     inkscape:window-x="1358"
     inkscape:window-y="-8"
     inkscape:window-maximized="1"
     inkscape:current-layer="g823"
     units="mm" /><g
     id="g823"
     inkscape:groupmode="layer"
     inkscape:label="ikony"
     transform="matrix(1.3333333,0,0,-1.3333333,0,83.149607)"><path
       style="fill:#000000;stroke-width:2.17164397"
       d=""
       id="path4899"
       inkscape:connector-curvature="0" /><g
       id="g6171"
       transform="matrix(1.2876773,0,0,1.2876773,60.978954,31.180217)"><path
         d="m 0,0 c 0,12.788 -10.367,23.155 -23.154,23.155 -12.789,0 -23.157,-10.367 -23.157,-23.155 0,-12.788 10.368,-23.155 23.157,-23.155 C -10.367,-23.155 0,-12.788 0,0 Z"
         style="fill:none;stroke:#da1f27;stroke-width:2;stroke-linecap:butt;stroke-linejoin:miter;stroke-miterlimit:10;stroke-dasharray:none;stroke-opacity:1"
         id="path6173"
         inkscape:connector-curvature="0" /></g><g
       id="g6175"
       transform="matrix(1.2876773,0,0,1.2876773,62.347357,8.7036541)"><path
         d="m 0,0 c 0,-3.728 -3.022,-6.75 -6.75,-6.75 -3.728,0 -6.75,3.022 -6.75,6.75 0,3.728 3.022,6.75 6.75,6.75 C -3.022,6.75 0,3.728 0,0"
         style="fill:#da1f27;fill-opacity:1;fill-rule:nonzero;stroke:none"
         id="path6177"
         inkscape:connector-curvature="0" /></g><g
       id="g6179"
       transform="matrix(1.2876773,0,0,1.2876773,50.77719,8.300096)"><path
         d="M 0,0 1.743,-1.743 5.359,1.874"
         style="fill:none;stroke:#ffffff;stroke-width:1;stroke-linecap:round;stroke-linejoin:miter;stroke-miterlimit:10;stroke-dasharray:none;stroke-opacity:1"
         id="path6181"
         inkscape:connector-curvature="0" /></g><g
       id="g6219"
       transform="matrix(1.2876773,0,0,1.2876773,48.101026,27.313451)"><path
         d="M 0,0 H -8.647"
         style="fill:none;stroke:#da1f27;stroke-width:0.69999999;stroke-linecap:butt;stroke-linejoin:miter;stroke-miterlimit:10;stroke-dasharray:none;stroke-opacity:1"
         id="path6221"
         inkscape:connector-curvature="0" /></g><g
       id="g6223"
       transform="matrix(1.2876773,0,0,1.2876773,44.3128,31.436722)"><path
         d="M 0,0 3.116,-3.115 -0.196,-6.427"
         style="fill:none;stroke:#da1f27;stroke-width:0.69999999;stroke-linecap:butt;stroke-linejoin:miter;stroke-miterlimit:10;stroke-dasharray:none;stroke-opacity:1"
         id="path6225"
         inkscape:connector-curvature="0" /></g><g
       id="g6227"
       transform="matrix(1.2876773,0,0,1.2876773,39.739869,22.24438)"><path
         d="m 0,0 -6.308,-3.666 -8.972,5.18 v 10.845 l 8.953,5.185 8.972,-5.181 -0.016,-2.539"
         style="fill:none;stroke:#da1f27;stroke-width:0.69999999;stroke-linecap:butt;stroke-linejoin:miter;stroke-miterlimit:10;stroke-dasharray:none;stroke-opacity:1"
         id="path6229"
         inkscape:connector-curvature="0" /></g><g
       id="g6231"
       transform="matrix(1.2876773,0,0,1.2876773,20.221639,38.159299)"><path
         d="m 0,0 8.946,-5.074 8.857,5.078"
         style="fill:none;stroke:#da1f27;stroke-width:0.69999999;stroke-linecap:butt;stroke-linejoin:miter;stroke-miterlimit:10;stroke-dasharray:none;stroke-opacity:1"
         id="path6233"
         inkscape:connector-curvature="0" /></g><g
       id="g6235"
       transform="matrix(1.2876773,0,0,1.2876773,31.74095,31.625367)"><path
         d="M 0,0 V -10.951"
         style="fill:none;stroke:#da1f27;stroke-width:0.69999999;stroke-linecap:butt;stroke-linejoin:miter;stroke-miterlimit:10;stroke-dasharray:none;stroke-opacity:1"
         id="path6237"
         inkscape:connector-curvature="0" /></g><g
       id="g6239"
       transform="matrix(1.2876773,0,0,1.2876773,20.063776,27.299544)"><path
         d="M 0,0 8.962,-5.096"
         style="fill:none;stroke:#da1f27;stroke-width:0.69999999;stroke-linecap:butt;stroke-linejoin:miter;stroke-miterlimit:10;stroke-dasharray:none;stroke-opacity:1"
         id="path6241"
         inkscape:connector-curvature="0" /></g></g></svg>